# xmcd
#
# Track frame offsets: 
#        150
#        15730
#        28917
#        43950
#        59735
#        72380
#        83035
#        99147
#        118912
#        129217
#        144180
#        159952
#
# Disc length: 2385 seconds
#
# Revision: 4
# Processed by: cddbd v1.5.2PL0 Copyright (c) Steve Scherf et al.
# Submitted via: ExactAudioCopy v0.99pb5
#
DISCID=9f094f0c
DTITLE=Jimmy Rogers - Feelin' Good
DYEAR=1994
DGENRE=Blues
TTITLE0=Rock This House
TTITLE1=You're So Sweet
TTITLE2=Harp Throb
TTITLE3=Angel Child
TTITLE4=You Don't Know
TTITLE5=Slick Chick
TTITLE6=Sharp Harp
TTITLE7=Blue And Lonesome
TTITLE8=Chicago Bound
TTITLE9=Tricky Woman
TTITLE10=St. Louis
TTITLE11=Rock With You Baby
EXTD=BPCD 5018\n\nJimmy Rogers: vocals (except cut 12) and guitar\nRod
EXTD=Piazza:  harmonica and vocal on cut 12\nHoney Piazzo:  piano\nAl
EXTD=ex Schultz:  upright bass on cuts 3 and 7\nBill Stuve:  upright a
EXTD=nd electirc bass on all others\nJimi Bott:  drums on cuts 3 and 7
EXTD=\nBill Swartz:  drums on all others\nSteve Killman:  guitar on cu
EXTD=t 3\nJunior Watson:  guitar on all others\n\nSubmitted 6/6/97\n[j
EXTD=mccoy@efn.org]
EXTT0=
EXTT1=
EXTT2=
EXTT3=
EXTT4=
EXTT5=
EXTT6=
EXTT7=
EXTT8=
EXTT9=
EXTT10=
EXTT11=
PLAYORDER=
